<svg xmlns="http://www.w3.org/2000/svg" xmlns:svg="http://www.w3.org/2000/svg" id="svg3371" width="1530" height="990" version="1.1" viewBox="0 0 1530 990" xml:space="preserve"><metadata id="metadata3377"/><defs id="defs3375"><clipPath id="clipPath3943" clipPathUnits="userSpaceOnUse"><path id="path3945" d="M 0,792 1224,792 1224,0 0,0 0,792 Z"/></clipPath><clipPath id="clipPath19829" clipPathUnits="userSpaceOnUse"><path id="path19831" d="M 0,792 1224,792 1224,0 0,0 0,792 Z"/></clipPath><clipPath id="clipPath20947" clipPathUnits="userSpaceOnUse"><path id="path20949" d="M 0,792 1224,792 1224,0 0,0 0,792 Z"/></clipPath><clipPath id="clipPath21629" clipPathUnits="userSpaceOnUse"><path id="path21631" d="M 0,792 1224,792 1224,0 0,0 0,792 Z"/></clipPath><clipPath id="clipPath21761" clipPathUnits="userSpaceOnUse"><path id="path21763" d="M 0,792 1224,792 1224,0 0,0 0,792 Z"/></clipPath><clipPath id="clipPath21819" clipPathUnits="userSpaceOnUse"><path id="path21821" d="M 0,792 1224,792 1224,0 0,0 0,792 Z"/></clipPath><clipPath id="clipPath21833" clipPathUnits="userSpaceOnUse"><path id="path21835" d="M 0,792 1224,792 1224,0 0,0 0,792 Z"/></clipPath><clipPath id="clipPath21849" clipPathUnits="userSpaceOnUse"><path id="path21851" d="M 0,792 1224,792 1224,0 0,0 0,792 Z"/></clipPath></defs><g id="g3379" transform="matrix(1.25,0,0,-1.25,0,990)"><g id="g3381" transform="translate(966.9892,255.2516)"><path id="path3383" d="M 0,0 -20.16,0" style="fill:none;stroke:#00bfb3;stroke-width:.5;stroke-linecap:round;stroke-linejoin:round;stroke-miterlimit:10;stroke-dasharray:none;stroke-opacity:1"/></g><g id="g3385" transform="translate(820.7089,516.1315)"><path id="path3387" d="M 0,0 5.64,0" style="fill:none;stroke:#474242;stroke-width:2;stroke-linecap:round;stroke-linejoin:round;stroke-miterlimit:10;stroke-dasharray:none;stroke-opacity:1"/></g><g id="g3389" transform="translate(1184.5487,358.8122)"><path id="path3391" d="m 0,0 0,-103.44 -10.8,0" style="fill:none;stroke:#000;stroke-width:3;stroke-linecap:round;stroke-linejoin:round;stroke-miterlimit:10;stroke-dasharray:none;stroke-opacity:1"/></g><g id="g3393" transform="translate(1184.5487,363.1315)"><path id="path3395" d="M 0,0 0,88.2" style="fill:none;stroke:#000;stroke-width:3;stroke-linecap:round;stroke-linejoin:round;stroke-miterlimit:10;stroke-dasharray:none;stroke-opacity:1"/></g><g id="g3397" transform="translate(1184.5487,455.652)"><path id="path3399" d="m 0,0 0,64.32 -844.68,0 -37.32,-10.08 -53.76,-23.88 -24,-15.6 -27.36,-17.88 -2.52,-45.96" style="fill:none;stroke:#000;stroke-width:3;stroke-linecap:round;stroke-linejoin:round;stroke-miterlimit:10;stroke-dasharray:none;stroke-opacity:1"/></g><g id="g3401" transform="translate(194.309,391.5719)"><path id="path3403" d="M 0,0 -1.44,-28.855" style="fill:none;stroke:#000;stroke-width:3;stroke-linecap:round;stroke-linejoin:round;stroke-miterlimit:10;stroke-dasharray:none;stroke-opacity:1"/></g><g id="g3405" transform="translate(1159.4291,255.3717)"><path id="path3407" d="M 0,0 -165.16,0" style="fill:none;stroke:#000;stroke-width:3;stroke-linecap:round;stroke-linejoin:round;stroke-miterlimit:10;stroke-dasharray:none;stroke-opacity:1"/></g><g id="g3409" transform="translate(976.9492,255.3717)"><path id="path3411" d="m 0,0 -670.56,0.72 -79.68,-12.96 -43.44,-16.32" style="fill:none;stroke:#000;stroke-width:3;stroke-linecap:round;stroke-linejoin:round;stroke-miterlimit:10;stroke-dasharray:none;stroke-opacity:1"/></g><path id="path3413" d="m 29.054,226.812 119.994,0 0,176.009 -119.994,0 0,-176.009 z" style="fill:none;stroke:#000;stroke-width:3;stroke-linecap:round;stroke-linejoin:round;stroke-miterlimit:10;stroke-dasharray:none;stroke-opacity:1"/><path id="path3415" d="m 149.048,412.179 -119.994,0 0,36.571 119.994,0 0,-36.571 z" style="fill:none;stroke:#000;stroke-width:3;stroke-linecap:round;stroke-linejoin:round;stroke-miterlimit:10;stroke-dasharray:none;stroke-opacity:1"/><g id="g3417" transform="translate(191.4291,347.2917)"><path id="path3419" d="m 0,0 -2.4,-44.76 26.04,0 19.8,9.6 21.96,9.36 40.32,16.92 42.84,9.72 485.294,0 359.266,0.721" style="fill:none;stroke:#474242;stroke-width:2;stroke-linecap:round;stroke-linejoin:round;stroke-miterlimit:10;stroke-dasharray:none;stroke-opacity:1"/></g><g id="g3421" transform="translate(337.3491,518.2917)"><path id="path3423" d="m 0,0 0,-25.68 5.76,0" style="fill:none;stroke:#474242;stroke-width:2;stroke-linecap:round;stroke-linejoin:round;stroke-miterlimit:10;stroke-dasharray:none;stroke-opacity:1"/></g><g id="g3425" transform="translate(343.3491,480.9723)"><path id="path3427" d="m 0,0 -5.64,0 0,-47.36 11.28,0" style="fill:none;stroke:#474242;stroke-width:2;stroke-linecap:round;stroke-linejoin:round;stroke-miterlimit:10;stroke-dasharray:none;stroke-opacity:1"/></g><g id="g3429" transform="translate(360.8691,433.612)"><path id="path3431" d="M 0,0 141.24,0" style="fill:none;stroke:#474242;stroke-width:2;stroke-linecap:round;stroke-linejoin:round;stroke-miterlimit:10;stroke-dasharray:none;stroke-opacity:1"/></g><g id="g3433" transform="translate(513.3891,433.612)"><path id="path3435" d="m 0,0 18.84,0 0,85.64" style="fill:none;stroke:#474242;stroke-width:2;stroke-linecap:round;stroke-linejoin:round;stroke-miterlimit:10;stroke-dasharray:none;stroke-opacity:1"/></g><g id="g3437" transform="translate(822.9892,433.692)"><path id="path3439" d="M 0,0 -290.28,-0.08" style="fill:none;stroke:#474242;stroke-width:2;stroke-linecap:round;stroke-linejoin:round;stroke-miterlimit:10;stroke-dasharray:none;stroke-opacity:1"/></g><g id="g3441" transform="translate(193.1533,368.4118)"><path id="path3443" d="m 0,0 102.076,48 216.24,0 311.24,0.36" style="fill:none;stroke:#474242;stroke-width:2;stroke-linecap:round;stroke-linejoin:round;stroke-miterlimit:10;stroke-dasharray:none;stroke-opacity:1"/></g><g id="g3445" transform="translate(820.7089,516.1315)"><path id="path3447" d="M 0,0 5.64,0" style="fill:none;stroke:#474242;stroke-width:2;stroke-linecap:round;stroke-linejoin:round;stroke-miterlimit:10;stroke-dasharray:none;stroke-opacity:1"/></g><g id="g3449" transform="translate(829.1088,485.0514)"><path id="path3451" d="m 0,0 -5.76,-0.239 0,30.8" style="fill:none;stroke:#474242;stroke-width:2;stroke-linecap:round;stroke-linejoin:round;stroke-miterlimit:10;stroke-dasharray:none;stroke-opacity:1"/></g><g id="g3453" transform="translate(829.1088,382.3317)"><path id="path3455" d="m 0,0 -5.76,0 0,-30.92" style="fill:none;stroke:#474242;stroke-width:2;stroke-linecap:round;stroke-linejoin:round;stroke-miterlimit:10;stroke-dasharray:none;stroke-opacity:1"/></g><g id="g3457" transform="translate(829.3491,461.5319)"><path id="path3459" d="m 0,0 -6,0 0,-56.04 5.76,0" style="fill:none;stroke:#474242;stroke-width:2;stroke-linecap:round;stroke-linejoin:round;stroke-miterlimit:10;stroke-dasharray:none;stroke-opacity:1"/></g><g id="g3461" transform="translate(826.3491,350.652)"><path id="path3463" d="M 0,0 -5.64,0" style="fill:none;stroke:#474242;stroke-width:2;stroke-linecap:round;stroke-linejoin:round;stroke-miterlimit:10;stroke-dasharray:none;stroke-opacity:1"/></g><g id="g3465" transform="translate(194.4291,386.2917)"><path id="path3467" d="m 0,0 100.68,47.16 42.6,0.16" style="fill:none;stroke:#474242;stroke-width:2;stroke-linecap:round;stroke-linejoin:round;stroke-miterlimit:10;stroke-dasharray:none;stroke-opacity:1"/></g><g id="g3469" transform="translate(295.2289,416.4118)"><path id="path3471" d="M 0,0 -0.12,17.04" style="fill:none;stroke:#474242;stroke-width:2;stroke-linecap:round;stroke-linejoin:round;stroke-miterlimit:10;stroke-dasharray:none;stroke-opacity:1"/></g><g id="g3473" transform="translate(268.9892,403.4919)"><path id="path3475" d="M 0,0 -12.16,-82" style="fill:none;stroke:#474242;stroke-width:2;stroke-linecap:round;stroke-linejoin:round;stroke-miterlimit:10;stroke-dasharray:none;stroke-opacity:1"/></g><g id="g3477" transform="translate(307.4692,416.4118)"><path id="path3479" d="M 0,0 0,-75.96" style="fill:none;stroke:#474242;stroke-width:2;stroke-linecap:round;stroke-linejoin:round;stroke-miterlimit:10;stroke-dasharray:none;stroke-opacity:1"/></g><g id="g3481" transform="translate(338.1889,386.4118)"><path id="path3483" d="m 0,0 0,-5.52 -30.72,0" style="fill:none;stroke:#474242;stroke-width:2;stroke-linecap:round;stroke-linejoin:round;stroke-miterlimit:10;stroke-dasharray:none;stroke-opacity:1"/></g><g id="g3489" transform="translate(338.1889,369.2516)"><path id="path3491" d="M 0,0 0,-21.12" style="fill:none;stroke:#474242;stroke-width:2;stroke-linecap:round;stroke-linejoin:round;stroke-miterlimit:10;stroke-dasharray:none;stroke-opacity:1"/></g><g id="g3493" transform="translate(966.9892,332.5319)"><path id="path3495" d="M 0,0 0,-77.28" style="fill:none;stroke:#474242;stroke-width:2;stroke-linecap:round;stroke-linejoin:round;stroke-miterlimit:10;stroke-dasharray:none;stroke-opacity:1"/></g><path id="path3931" d="m 780.775,386.14 -11.596,0 0,23.245 11.596,0 0,-23.245 z" style="fill:none;stroke:#00bfb3;stroke-width:.5;stroke-linecap:round;stroke-linejoin:round;stroke-miterlimit:10;stroke-dasharray:none;stroke-opacity:1"/><path id="path3933" d="m 792.371,386.14 -11.596,0 0,23.245 11.596,0 0,-23.245 z" style="fill:none;stroke:#00bfb3;stroke-width:.5;stroke-linecap:round;stroke-linejoin:round;stroke-miterlimit:10;stroke-dasharray:none;stroke-opacity:1"/><path id="path3935" d="m 780.775,362.895 -11.596,0 0,23.245 11.596,0 0,-23.245 z" style="fill:none;stroke:#00bfb3;stroke-width:.5;stroke-linecap:round;stroke-linejoin:round;stroke-miterlimit:10;stroke-dasharray:none;stroke-opacity:1"/><path id="path3937" d="m 792.371,362.895 -11.596,0 0,23.245 11.596,0 0,-23.245 z" style="fill:none;stroke:#00bfb3;stroke-width:.5;stroke-linecap:round;stroke-linejoin:round;stroke-miterlimit:10;stroke-dasharray:none;stroke-opacity:1"/><g id="g19825"><g id="g19827" clip-path="url(#clipPath19829)"><path id="path20927" d="m 779.184,393.254 -1.281,0 0,7.355 1.281,0 0,-7.355 z" style="fill:#e7e7e7;fill-opacity:1;fill-rule:nonzero;stroke:#999;stroke-width:.014;stroke-linecap:round;stroke-linejoin:round;stroke-miterlimit:10;stroke-dasharray:none;stroke-opacity:1"/><path id="path20929" d="m 783.831,393.254 -1.281,0 0,7.355 1.281,0 0,-7.355 z" style="fill:#e7e7e7;fill-opacity:1;fill-rule:nonzero;stroke:#999;stroke-width:.014;stroke-linecap:round;stroke-linejoin:round;stroke-miterlimit:10;stroke-dasharray:none;stroke-opacity:1"/><path id="path20931" d="m 779.184,371.101 -1.281,0 0,7.355 1.281,0 0,-7.355 z" style="fill:#e7e7e7;fill-opacity:1;fill-rule:nonzero;stroke:#999;stroke-width:.014;stroke-linecap:round;stroke-linejoin:round;stroke-miterlimit:10;stroke-dasharray:none;stroke-opacity:1"/><path id="path20933" d="m 783.831,371.101 -1.281,0 0,7.355 1.281,0 0,-7.355 z" style="fill:#e7e7e7;fill-opacity:1;fill-rule:nonzero;stroke:#999;stroke-width:.014;stroke-linecap:round;stroke-linejoin:round;stroke-miterlimit:10;stroke-dasharray:none;stroke-opacity:1"/></g></g></g></svg>